<svg width="218" height="341" viewBox="0 0 218 341" fill="none" xmlns="http://www.w3.org/2000/svg">
<path d="M213 133.618L126 203.118L213 272.118M5 272.118L92 203.118L5 133.618M8.11207 139.939V21L109 139.939L209.888 21V139.939" stroke="url(#paint0_linear_113_23)" stroke-width="15"/>
<path d="M75.544 306.584C75.544 300.44 70.6 295.4 64.456 295.4H52.6V329H57.496V317.768H64.456C70.6 317.768 75.544 312.776 75.544 306.584ZM70.552 306.584C70.552 310.232 67.816 313.208 63.784 313.208H57.496V299.96H63.784C67.816 299.96 70.552 302.936 70.552 306.584ZM97.1864 329H102.37L88.1624 294.776L73.9544 329H79.1384L81.9704 321.896H94.3544L97.1864 329ZM88.1624 306.2L92.5784 317.528H83.6984L88.1624 306.2ZM106.694 329H111.59V295.4H106.694V329ZM143.7 295.4H138.276L129.876 317.864L121.476 295.4H116.052L129.876 329.576L143.7 295.4ZM162.765 329H167.949L153.741 294.776L139.533 329H144.717L147.549 321.896H159.933L162.765 329ZM153.741 306.2L158.157 317.528H149.277L153.741 306.2Z" fill="#B8B8B8"/>
<defs>
<linearGradient id="paint0_linear_113_23" x1="109" y1="21" x2="109" y2="272.118" gradientUnits="userSpaceOnUse">
<stop stop-color="#9E7233"/>
<stop offset="1" stop-color="#9E7233" stop-opacity="0"/>
</linearGradient>
</defs>
</svg>
