<?xml version="1.0" standalone="no"?>
<!DOCTYPE svg PUBLIC "-//W3C//DTD SVG 20010904//EN"
 "http://www.w3.org/TR/2001/REC-SVG-20010904/DTD/svg10.dtd">
<svg version="1.0" xmlns="http://www.w3.org/2000/svg"
 width="260.000000pt" height="225.000000pt" viewBox="0 0 260.000000 225.000000"
 preserveAspectRatio="xMidYMid meet">

<g transform="translate(0.000000,225.000000) scale(0.100000,-0.100000)"
fill="#000000" stroke="none">
<path d="M0 1125 l0 -1125 1300 0 1300 0 0 1125 0 1125 -1300 0 -1300 0 0
-1125z m994 538 c166 -271 304 -493 307 -493 3 0 138 223 299 495 l294 495
323 0 323 0 0 -810 0 -810 -42 41 c-158 153 -469 155 -636 5 l-40 -37 -6 83
c-4 46 -7 103 -9 127 -2 43 -3 42 -167 -235 l-165 -279 -180 -3 -180 -2 -165
266 c-91 146 -168 268 -172 271 -5 2 -8 -48 -8 -112 l0 -117 -46 41 c-169 149
-475 144 -633 -9 l-41 -40 0 810 0 810 322 -2 322 -3 300 -492z m-757 -1313
c5 0 22 14 39 31 16 17 41 37 56 45 35 18 102 18 142 -1 97 -46 102 -233 8
-288 -63 -36 -180 -10 -218 48 -9 14 -20 25 -25 25 -4 0 -46 -34 -92 -75 -47
-41 -87 -75 -91 -75 -3 0 -6 102 -6 226 l0 226 89 -81 c49 -45 93 -81 98 -81z
m2298 -288 c-2 -3 -43 30 -90 72 -47 42 -89 76 -93 76 -5 0 -18 -13 -29 -28
-43 -59 -139 -79 -210 -45 -44 20 -72 78 -73 146 0 90 49 148 134 155 44 3 62
0 95 -19 23 -12 48 -33 56 -46 9 -13 20 -23 26 -23 7 0 50 35 98 77 l86 77 3
-219 c1 -120 0 -220 -3 -223z"/>
</g>
</svg>
