<svg id="visual" viewBox="0 0 900 600" width="900" height="600" xmlns="http://www.w3.org/2000/svg" xmlns:xlink="http://www.w3.org/1999/xlink" version="1.1"><path d="M0 210L21.5 207.2C43 204.3 86 198.7 128.8 194.3C171.7 190 214.3 187 257.2 188.7C300 190.3 343 196.7 385.8 202.8C428.7 209 471.3 215 514.2 220.8C557 226.7 600 232.3 642.8 229.7C685.7 227 728.3 216 771.2 203.2C814 190.3 857 175.7 878.5 168.3L900 161L900 0L878.5 0C857 0 814 0 771.2 0C728.3 0 685.7 0 642.8 0C600 0 557 0 514.2 0C471.3 0 428.7 0 385.8 0C343 0 300 0 257.2 0C214.3 0 171.7 0 128.8 0C86 0 43 0 21.5 0L0 0Z" fill="#ffcb74"></path><path d="M0 125L21.5 130.8C43 136.7 86 148.3 128.8 151.8C171.7 155.3 214.3 150.7 257.2 155.2C300 159.7 343 173.3 385.8 176.5C428.7 179.7 471.3 172.3 514.2 172C557 171.7 600 178.3 642.8 180.3C685.7 182.3 728.3 179.7 771.2 169.3C814 159 857 141 878.5 132L900 123L900 0L878.5 0C857 0 814 0 771.2 0C728.3 0 685.7 0 642.8 0C600 0 557 0 514.2 0C471.3 0 428.7 0 385.8 0C343 0 300 0 257.2 0C214.3 0 171.7 0 128.8 0C86 0 43 0 21.5 0L0 0Z" fill="#bc9759"></path><path d="M0 102L21.5 109.8C43 117.7 86 133.3 128.8 137.3C171.7 141.3 214.3 133.7 257.2 124.2C300 114.7 343 103.3 385.8 109.2C428.7 115 471.3 138 514.2 142.5C557 147 600 133 642.8 127.3C685.7 121.7 728.3 124.3 771.2 130.2C814 136 857 145 878.5 149.5L900 154L900 0L878.5 0C857 0 814 0 771.2 0C728.3 0 685.7 0 642.8 0C600 0 557 0 514.2 0C471.3 0 428.7 0 385.8 0C343 0 300 0 257.2 0C214.3 0 171.7 0 128.8 0C86 0 43 0 21.5 0L0 0Z" fill="#7e6640"></path><path d="M0 100L21.5 93.3C43 86.7 86 73.3 128.8 69C171.7 64.7 214.3 69.3 257.2 70.8C300 72.3 343 70.7 385.8 68.7C428.7 66.7 471.3 64.3 514.2 63.2C557 62 600 62 642.8 66C685.7 70 728.3 78 771.2 84.8C814 91.7 857 97.3 878.5 100.2L900 103L900 0L878.5 0C857 0 814 0 771.2 0C728.3 0 685.7 0 642.8 0C600 0 557 0 514.2 0C471.3 0 428.7 0 385.8 0C343 0 300 0 257.2 0C214.3 0 171.7 0 128.8 0C86 0 43 0 21.5 0L0 0Z" fill="#453928"></path><path d="M0 43L21.5 44.5C43 46 86 49 128.8 46.3C171.7 43.7 214.3 35.3 257.2 33C300 30.7 343 34.3 385.8 36.7C428.7 39 471.3 40 514.2 41.8C557 43.7 600 46.3 642.8 47.8C685.7 49.3 728.3 49.7 771.2 51.5C814 53.3 857 56.7 878.5 58.3L900 60L900 0L878.5 0C857 0 814 0 771.2 0C728.3 0 685.7 0 642.8 0C600 0 557 0 514.2 0C471.3 0 428.7 0 385.8 0C343 0 300 0 257.2 0C214.3 0 171.7 0 128.8 0C86 0 43 0 21.5 0L0 0Z" fill="#111111"></path></svg>