<svg id="visual" viewBox="0 0 900 600" width="900" height="600" xmlns="http://www.w3.org/2000/svg" xmlns:xlink="http://www.w3.org/1999/xlink" version="1.1"><path d="M0 453L21.5 451.7C43 450.3 86 447.7 128.8 441.5C171.7 435.3 214.3 425.7 257.2 420.7C300 415.7 343 415.3 385.8 412.7C428.7 410 471.3 405 514.2 405C557 405 600 410 642.8 420.5C685.7 431 728.3 447 771.2 453.7C814 460.3 857 457.7 878.5 456.3L900 455L900 601L878.5 601C857 601 814 601 771.2 601C728.3 601 685.7 601 642.8 601C600 601 557 601 514.2 601C471.3 601 428.7 601 385.8 601C343 601 300 601 257.2 601C214.3 601 171.7 601 128.8 601C86 601 43 601 21.5 601L0 601Z" fill="#ffcb74"></path><path d="M0 444L21.5 446.5C43 449 86 454 128.8 459C171.7 464 214.3 469 257.2 468.2C300 467.3 343 460.7 385.8 459.3C428.7 458 471.3 462 514.2 469.7C557 477.3 600 488.7 642.8 485.7C685.7 482.7 728.3 465.3 771.2 457.3C814 449.3 857 450.7 878.5 451.3L900 452L900 601L878.5 601C857 601 814 601 771.2 601C728.3 601 685.7 601 642.8 601C600 601 557 601 514.2 601C471.3 601 428.7 601 385.8 601C343 601 300 601 257.2 601C214.3 601 171.7 601 128.8 601C86 601 43 601 21.5 601L0 601Z" fill="#bc9759"></path><path d="M0 510L21.5 508.8C43 507.7 86 505.3 128.8 504.2C171.7 503 214.3 503 257.2 500.2C300 497.3 343 491.7 385.8 487.7C428.7 483.7 471.3 481.3 514.2 482.8C557 484.3 600 489.7 642.8 494.3C685.7 499 728.3 503 771.2 500.5C814 498 857 489 878.5 484.5L900 480L900 601L878.5 601C857 601 814 601 771.2 601C728.3 601 685.7 601 642.8 601C600 601 557 601 514.2 601C471.3 601 428.7 601 385.8 601C343 601 300 601 257.2 601C214.3 601 171.7 601 128.8 601C86 601 43 601 21.5 601L0 601Z" fill="#7e6640"></path><path d="M0 533L21.5 527.8C43 522.7 86 512.3 128.8 511.8C171.7 511.3 214.3 520.7 257.2 523.5C300 526.3 343 522.7 385.8 525.3C428.7 528 471.3 537 514.2 534.3C557 531.7 600 517.3 642.8 518C685.7 518.7 728.3 534.3 771.2 537C814 539.7 857 529.3 878.5 524.2L900 519L900 601L878.5 601C857 601 814 601 771.2 601C728.3 601 685.7 601 642.8 601C600 601 557 601 514.2 601C471.3 601 428.7 601 385.8 601C343 601 300 601 257.2 601C214.3 601 171.7 601 128.8 601C86 601 43 601 21.5 601L0 601Z" fill="#453928"></path><path d="M0 569L21.5 567.7C43 566.3 86 563.7 128.8 562.8C171.7 562 214.3 563 257.2 559.5C300 556 343 548 385.8 545C428.7 542 471.3 544 514.2 544.7C557 545.3 600 544.7 642.8 546.2C685.7 547.7 728.3 551.3 771.2 555.7C814 560 857 565 878.5 567.5L900 570L900 601L878.5 601C857 601 814 601 771.2 601C728.3 601 685.7 601 642.8 601C600 601 557 601 514.2 601C471.3 601 428.7 601 385.8 601C343 601 300 601 257.2 601C214.3 601 171.7 601 128.8 601C86 601 43 601 21.5 601L0 601Z" fill="#111111"></path></svg>